/* XPM */
static char *ipmsg[] = {
/* columns rows colors chars-per-pixel */
"64 64 5 1 ",
"  c black",
". c red",
"X c yellow",
"o c blue",
"O c #808080",
/* pixels */
"................................................................",
"................................................................",
"....XXXXXXXXXXXX..oooooooooooooooooooooooooooooooooooooooooooo..",
"....XXXXXXXXXXXX..oooooooooooooooooooooooooooooooooooooooooooo..",
"..XXXXXXXXXXXXXXXX..oooooooooooooooooooooooooooooooooooooooooo..",
"..XXXXXXXXXXXXXXXX..oooooooooooooooooooooooooooooooooooooooooo..",
"..XXXXXXXXXXXXXXXXXX..oooooooooooooooooooooooooooooooooooooooo..",
"..XXXXXXXXXXXXXXXXXX..oooooooooooooooooooooooooooooooooooooooo..",
"..XXXXXXXXXXXXXXXXXX..ooooooooooooooooooooooooooooXX....oooooo..",
"..XXXXXXXXXXXXXXXXXX..ooooooooooooooooooooooooooooXX....oooooo..",
"..XXXXXXXXXXXXXXXXXXXXooooooooooooXX....ooooooooXX........oooo..",
"..XXXXXXXXXXXXXXXXXXXXooooooooooooXX....ooooooooXX........oooo..",
"..XXXXXXXXXXXXXXXXXXXXooooooooooXX........ooooooXX........oooo..",
"..XXXXXXXXXXXXXXXXXXXXooooooooooXX........ooooooXX........oooo..",
"..XXXXXXXXXXXXXXXXXX..ooooooooooXX........ooooXX..........oooo..",
"..XXXXXXXXXXXXXXXXXX..ooooooooooXX........ooooXX..........oooo..",
"..XXXXXXXXXXXXXXXXXX..ooooooooooXX........ooooXX..........oooo..",
"..XXXXXXXXXXXXXXXXXX..ooooooooooXX........ooooXX..........oooo..",
"..XXXXXXXXXXXXXXXX..ooooooooooooXX........ooXX..........oooooo..",
"..XXXXXXXXXXXXXXXX..ooooooooooooXX........ooXX..........oooooo..",
"..ooXXXXXXXXXXXX....ooooooooooooXX........oo............oooooo..",
"..ooXXXXXXXXXXXX....ooooooooooooXX........oo............oooooo..",
"..oooo........ooooooooooooooooooooXX..................oooooooo..",
"..oooo........ooooooooooooooooooooXX..................oooooooo..",
"..oooooooooooooooooooooooooooooooooo................oooooooooo..",
"..oooooooooooooooooooooooooooooooooo................oooooooooo..",
"..oooooooooooooooooooooooooooooooooo................oooooooooo..",
"..oooooooooooooooooooooooooooooooooo................oooooooooo..",
"..ooooooooooooooooooooooooooooooXXXX..............oooooooooooo..",
"..ooooooooooooooooooooooooooooooXXXX..............oooooooooooo..",
"..ooooooooooooooooooooooooXXXXXXXX..............oooooooooooooo..",
"..ooooooooooooooooooooooooXXXXXXXX..............oooooooooooooo..",
"..ooooooooooooooooooooXXXX....................oooooooooooooooo..",
"..ooooooooooooooooooooXXXX....................oooooooooooooooo..",
"..ooooooooooooooooXXXX..........................oooooooooooooo..",
"..ooooooooooooooooXXXX..........................oooooooooooooo..",
"..ooooooooooooooooXX............................oooooooooooooo..",
"..ooooooooooooooooXX............................oooooooooooooo..",
"..ooooooooooooXXXX..............oooooooo........oooooooooooooo..",
"..ooooooooooooXXXX..............oooooooo........oooooooooooooo..",
"..ooooooooooooXXXX............oooooooooo........oooooooooooooo..",
"..ooooooooooooXXXX............oooooooooo........oooooooooooooo..",
"..ooooooooooXXXX............oooooooooooo..........oooooooooooo..",
"..ooooooooooXXXX............oooooooooooo..........oooooooooooo..",
"..OOOOOOOOOOXXXX..........OOOOOOOOOOOOOOXX............OOOOOOOO..",
"..OOOOOOOOOOXXXX..........OOOOOOOOOOOOOOXX............OOOOOOOO..",
"..OOOOOOOOOOXX............OOOOOOOOOOOOOOXX............OOOOOOOO..",
"..OOOOOOOOOOXX............OOOOOOOOOOOOOOXX............OOOOOOOO..",
"..OOOOOOOOOOXX..........OOOOOOOOOOOOOOOOOOXX..........OOOOOOOO..",
"..OOOOOOOOOOXX..........OOOOOOOOOOOOOOOOOOXX..........OOOOOOOO..",
"..OOOOOOOOOOXX..........OOOOOOOOOOOOOOOOOOOOOO......OOOOOOOOOO..",
"..OOOOOOOOOOXX..........OOOOOOOOOOOOOOOOOOOOOO......OOOOOOOOOO..",
"..OOOOOOOOOOOO........OOOOOOOOOOOOOOOOOOOOOOOOOO        OOOOOO..",
"..OOOOOOOOOOOO........OOOOOOOOOOOOOOOOOOOOOOOOOO        OOOOOO..",
"..OOOOOOOOOOOOOO            OOOOOOOOOOOOOOOOOOOOOO          OO..",
"..OOOOOOOOOOOOOO            OOOOOOOOOOOOOOOOOOOOOO          OO..",
"..OOOOOOOOOOOOOOOO                OOOOOOOOOOOOOOOOOO          ..",
"..OOOOOOOOOOOOOOOO                OOOOOOOOOOOOOOOOOO          ..",
"..OOOOOOOOOOOOOOOOOO                                          ..",
"..OOOOOOOOOOOOOOOOOO                                          ..",
"..OOOOOOOOOOOOOOOOOOOOOOOO                                    ..",
"..OOOOOOOOOOOOOOOOOOOOOOOO                                    ..",
"................................................................",
"................................................................"
};
